<svg width="432" height="143" viewBox="0 0 432 143" fill="none" xmlns="http://www.w3.org/2000/svg">
<g filter="url(#filter0_b_12_579)">
<path d="M195.465 96.582C195.465 94.4987 195.823 92.9036 196.539 91.7969C197.32 90.6901 198.818 90.1367 201.031 90.1367C202.789 90.1367 204.352 90.5273 205.719 91.3086C207.151 92.0247 208.453 92.9688 209.625 94.1406C210.862 95.3125 211.969 96.582 212.945 97.9492C213.922 99.2513 214.866 100.488 215.777 101.66C216.689 102.832 217.568 103.809 218.414 104.59C219.26 105.306 220.139 105.664 221.051 105.664C221.832 105.664 222.451 105.599 222.906 105.469C223.427 105.339 224.046 105.111 224.762 104.785V102.344C224.762 97.8516 224.599 93.3594 224.273 88.8672C224.013 84.375 223.883 79.8503 223.883 75.293C225.25 75.293 226.227 75.5208 226.812 75.9766C227.464 76.3672 227.854 77.3112 227.984 78.8086L230.426 103.906C230.556 103.906 230.816 103.939 231.207 104.004C231.663 104.004 231.956 104.004 232.086 104.004C234.56 104.004 237.066 103.516 239.605 102.539C242.145 101.562 244.553 100.326 246.832 98.8281C249.111 97.2656 251.194 95.5078 253.082 93.5547C255.035 91.6016 256.695 89.6484 258.062 87.6953H259.137C259.137 89.3229 258.616 90.9505 257.574 92.5781C256.533 94.1406 255.198 95.6706 253.57 97.168C251.943 98.6654 250.087 100.098 248.004 101.465C245.986 102.767 243.935 103.939 241.852 104.98C239.833 105.957 237.88 106.803 235.992 107.52C234.104 108.171 232.542 108.594 231.305 108.789C230.719 109.049 230.328 109.408 230.133 109.863C229.938 110.319 229.807 110.84 229.742 111.426C229.677 111.947 229.645 112.5 229.645 113.086C229.645 113.607 229.645 114.062 229.645 114.453C229.579 114.779 229.514 115.397 229.449 116.309C229.384 117.155 229.286 118.066 229.156 119.043C229.091 119.954 229.026 120.833 228.961 121.68C228.896 122.461 228.831 123.047 228.766 123.438C228.701 123.633 228.473 123.926 228.082 124.316C227.691 124.642 227.398 124.87 227.203 125C227.138 125.065 227.073 125.098 227.008 125.098H226.91C225.868 125.098 225.12 124.772 224.664 124.121C224.208 123.405 223.785 122.526 223.395 121.484C223.069 120.443 222.711 119.303 222.32 118.066C221.995 116.829 221.474 115.625 220.758 114.453C220.042 113.281 219.033 112.272 217.73 111.426C216.493 110.514 214.801 109.928 212.652 109.668C210.699 109.342 208.681 108.952 206.598 108.496C204.579 107.975 202.757 107.227 201.129 106.25C199.501 105.273 198.134 104.004 197.027 102.441C195.986 100.879 195.465 98.9258 195.465 96.582ZM223.199 110.449C223.199 110.514 223.297 110.775 223.492 111.23C223.688 111.686 223.85 111.979 223.98 112.109C224.111 112.044 224.241 111.914 224.371 111.719C224.566 111.523 224.697 111.361 224.762 111.23V111.035C224.762 110.97 224.762 110.938 224.762 110.938C224.827 110.872 224.859 110.807 224.859 110.742C224.859 110.742 224.827 110.677 224.762 110.547V110.449C224.697 110.319 224.566 110.156 224.371 109.961C224.241 109.766 224.111 109.668 223.98 109.668C223.85 109.668 223.688 109.766 223.492 109.961C223.297 110.156 223.199 110.319 223.199 110.449ZM200.445 97.3633C200.445 98.7956 200.934 100.033 201.91 101.074C202.887 102.116 204.091 102.995 205.523 103.711C207.021 104.362 208.583 104.85 210.211 105.176C211.839 105.501 213.238 105.664 214.41 105.664C214.41 104.622 213.922 103.451 212.945 102.148C212.034 100.781 210.895 99.5117 209.527 98.3398C208.225 97.1029 206.826 96.0938 205.328 95.3125C203.896 94.5312 202.691 94.1406 201.715 94.1406C201.324 94.1406 201.031 94.2708 200.836 94.5312C200.641 94.7266 200.51 94.987 200.445 95.3125C200.445 95.638 200.445 95.9961 200.445 96.3867C200.445 96.7773 200.445 97.1029 200.445 97.3633Z" fill="black"/>
<path d="M285.535 119.385C283.528 119.385 281.802 119.14 280.355 118.65C278.908 118.137 277.765 117.67 276.925 117.25C277.112 116.223 277.193 115.162 277.17 114.065C277.17 112.945 277.03 111.837 276.75 110.74H277.975C278.092 112.187 278.453 113.482 279.06 114.625C279.69 115.745 280.542 116.632 281.615 117.285C282.712 117.915 284.018 118.23 285.535 118.23C286.212 118.23 286.912 118.102 287.635 117.845C288.358 117.565 288.965 117.122 289.455 116.515C289.968 115.908 290.225 115.115 290.225 114.135C290.225 113.272 290.038 112.56 289.665 112C289.315 111.44 288.673 110.927 287.74 110.46C286.83 109.97 285.535 109.445 283.855 108.885C281.732 108.162 280.11 107.298 278.99 106.295C277.87 105.268 277.31 103.822 277.31 101.955C277.31 100.742 277.602 99.6217 278.185 98.595C278.792 97.545 279.678 96.705 280.845 96.075C282.035 95.4217 283.482 95.095 285.185 95.095C286.118 95.095 286.877 95.1883 287.46 95.375C288.067 95.5617 288.58 95.76 289 95.97C289.35 96.1333 289.665 96.285 289.945 96.425C290.225 96.5417 290.517 96.6 290.82 96.6L291.94 96.39L292.045 96.46C291.998 96.6933 291.963 96.9733 291.94 97.3C291.917 97.6267 291.905 97.93 291.905 98.21C291.905 98.9333 291.952 99.645 292.045 100.345C292.162 101.022 292.267 101.582 292.36 102.025C292.477 102.445 292.535 102.655 292.535 102.655H291.59C291.24 101.302 290.738 100.158 290.085 99.225C289.455 98.2683 288.72 97.5333 287.88 97.02C287.04 96.5067 286.118 96.25 285.115 96.25C284.205 96.25 283.423 96.4483 282.77 96.845C282.14 97.2417 281.662 97.7433 281.335 98.35C281.008 98.9567 280.845 99.5867 280.845 100.24C280.845 101.057 280.997 101.722 281.3 102.235C281.603 102.748 282.175 103.215 283.015 103.635C283.878 104.055 285.115 104.533 286.725 105.07C288.428 105.63 289.77 106.237 290.75 106.89C291.73 107.543 292.43 108.29 292.85 109.13C293.27 109.97 293.48 110.973 293.48 112.14C293.48 113.61 293.142 114.893 292.465 115.99C291.812 117.063 290.89 117.903 289.7 118.51C288.51 119.093 287.122 119.385 285.535 119.385ZM294.008 119V118.23L296.038 117.775C296.551 117.658 296.936 117.495 297.193 117.285C297.473 117.052 297.695 116.748 297.858 116.375L304.998 99.47L303.913 96.775C304.66 96.7517 305.29 96.6117 305.803 96.355C306.316 96.075 306.701 95.7717 306.958 95.445C307.215 95.095 307.343 94.8033 307.343 94.57H307.833L317.003 116.83C317.12 117.11 317.306 117.32 317.563 117.46C317.82 117.6 318.228 117.728 318.788 117.845L320.573 118.23V119H308.323V118.23L310.108 117.845C310.621 117.728 310.995 117.588 311.228 117.425C311.485 117.238 311.613 116.993 311.613 116.69C311.613 116.573 311.59 116.457 311.543 116.34C311.52 116.223 311.485 116.095 311.438 115.955L305.208 100.345H305.978L299.188 116.41C299.165 116.48 299.141 116.55 299.118 116.62C299.118 116.69 299.118 116.748 299.118 116.795C299.118 117.005 299.2 117.192 299.363 117.355C299.526 117.518 299.795 117.635 300.168 117.705L303.178 118.23V119H294.008ZM301.393 111.09V109.935H311.368V111.09H301.393ZM336.587 119.21L327.977 100.24L326.962 115.78C326.939 116.363 327.091 116.807 327.417 117.11C327.744 117.39 328.222 117.588 328.852 117.705L331.407 118.23V119H321.782V118.23L323.812 117.775C324.232 117.682 324.571 117.565 324.827 117.425C325.107 117.262 325.317 117.052 325.457 116.795C325.597 116.538 325.679 116.2 325.702 115.78L326.752 98.665C326.799 97.9183 326.694 97.4283 326.437 97.195C326.204 96.9617 325.679 96.7633 324.862 96.6L323.077 96.215V95.445L331.302 95.48L338.687 111.685L345.232 95.445H353.702V96.215L351.917 96.6C351.124 96.7633 350.599 96.9617 350.342 97.195C350.109 97.4283 350.004 97.9183 350.027 98.665L350.727 115.78C350.751 116.27 350.809 116.643 350.902 116.9C350.996 117.157 351.171 117.355 351.427 117.495C351.684 117.612 352.081 117.728 352.617 117.845L354.402 118.23V119H342.152V118.23L343.937 117.845C344.754 117.658 345.279 117.448 345.512 117.215C345.769 116.982 345.874 116.503 345.827 115.78L345.057 99.435L337.112 119.21H336.587ZM371.314 119.21L362.704 100.24L361.689 115.78C361.666 116.363 361.817 116.807 362.144 117.11C362.471 117.39 362.949 117.588 363.579 117.705L366.134 118.23V119H356.509V118.23L358.539 117.775C358.959 117.682 359.297 117.565 359.554 117.425C359.834 117.262 360.044 117.052 360.184 116.795C360.324 116.538 360.406 116.2 360.429 115.78L361.479 98.665C361.526 97.9183 361.421 97.4283 361.164 97.195C360.931 96.9617 360.406 96.7633 359.589 96.6L357.804 96.215V95.445L366.029 95.48L373.414 111.685L379.959 95.445H388.429V96.215L386.644 96.6C385.851 96.7633 385.326 96.9617 385.069 97.195C384.836 97.4283 384.731 97.9183 384.754 98.665L385.454 115.78C385.477 116.27 385.536 116.643 385.629 116.9C385.722 117.157 385.897 117.355 386.154 117.495C386.411 117.612 386.807 117.728 387.344 117.845L389.129 118.23V119H376.879V118.23L378.664 117.845C379.481 117.658 380.006 117.448 380.239 117.215C380.496 116.982 380.601 116.503 380.554 115.78L379.784 99.435L371.839 119.21H371.314ZM402.051 110.25L393.861 97.51C393.697 97.2767 393.511 97.09 393.301 96.95C393.091 96.7867 392.846 96.6817 392.566 96.635L390.711 96.215V95.445H403.311V96.215L401.526 96.6C400.966 96.7167 400.534 96.9267 400.231 97.23C399.951 97.51 399.997 97.9417 400.371 98.525L405.026 105.945H404.431L409.856 98.14C410.042 97.86 410.089 97.615 409.996 97.405C409.902 97.1717 409.587 96.9967 409.051 96.88L406.076 96.215V95.445H415.841V96.215L413.636 96.67C413.192 96.7633 412.819 96.9033 412.516 97.09C412.212 97.2533 411.979 97.5333 411.816 97.93L403.556 110.005L402.051 110.25ZM396.801 119V118.23L398.586 117.845C399.402 117.658 399.916 117.448 400.126 117.215C400.359 116.982 400.476 116.503 400.476 115.78V106.645L405.376 106.365V115.78C405.376 116.503 405.492 116.982 405.726 117.215C405.959 117.448 406.472 117.658 407.266 117.845L409.051 118.23V119H396.801Z" fill="black"/>
<path d="M15.855 119.21L7.245 100.24L6.23 115.78C6.20667 116.363 6.35833 116.807 6.685 117.11C7.01167 117.39 7.49 117.588 8.12 117.705L10.675 118.23V119H1.05V118.23L3.08 117.775C3.5 117.682 3.83833 117.565 4.095 117.425C4.375 117.262 4.585 117.052 4.725 116.795C4.865 116.538 4.94667 116.2 4.97 115.78L6.02 98.665C6.06667 97.9183 5.96167 97.4283 5.705 97.195C5.47167 96.9617 4.94667 96.7633 4.13 96.6L2.345 96.215V95.445L10.57 95.48L17.955 111.685L24.5 95.445H32.97V96.215L31.185 96.6C30.3917 96.7633 29.8667 96.9617 29.61 97.195C29.3767 97.4283 29.2717 97.9183 29.295 98.665L29.995 115.78C30.0183 116.27 30.0767 116.643 30.17 116.9C30.2633 117.157 30.4383 117.355 30.695 117.495C30.9517 117.612 31.3483 117.728 31.885 117.845L33.67 118.23V119H21.42V118.23L23.205 117.845C24.0217 117.658 24.5467 117.448 24.78 117.215C25.0367 116.982 25.1417 116.503 25.095 115.78L24.325 99.435L16.38 119.21H15.855ZM35.7766 119V118.23L37.5616 117.845C38.3782 117.658 38.8916 117.448 39.1016 117.215C39.3349 116.982 39.4516 116.503 39.4516 115.78V98.665C39.4516 97.9183 39.3349 97.4283 39.1016 97.195C38.8916 96.9617 38.3782 96.7633 37.5616 96.6L35.7766 96.215V95.445H55.8316C55.7616 95.7717 55.7149 96.0983 55.6916 96.425C55.6682 96.7283 55.6566 97.0433 55.6566 97.37C55.6566 98.0933 55.7149 98.805 55.8316 99.505C55.9482 100.182 56.0649 100.893 56.1816 101.64H55.4116C55.0382 100.707 54.5482 99.8667 53.9416 99.12C53.3349 98.35 52.6232 97.7433 51.8066 97.3C50.9899 96.8333 50.0566 96.6 49.0066 96.6H44.3516V105.98H48.8316C49.9982 105.98 50.8266 105.747 51.3166 105.28C51.8299 104.813 52.1566 104.16 52.2966 103.32L52.5766 101.71H53.3466V111.405H52.5766L52.2616 109.725C52.1216 108.908 51.8066 108.278 51.3166 107.835C50.8266 107.368 50.0216 107.135 48.9016 107.135H44.3516V114.835C44.3516 115.512 44.3866 116.083 44.4566 116.55C44.5266 116.993 44.7249 117.32 45.0516 117.53C45.4016 117.74 45.9732 117.845 46.7666 117.845H49.3566C50.1966 117.845 50.9432 117.728 51.5966 117.495C52.2499 117.238 52.8449 116.888 53.3816 116.445C53.9182 115.978 54.4082 115.43 54.8516 114.8L56.3566 112.7H57.1266C56.8932 113.727 56.6832 114.765 56.4966 115.815C56.3332 116.865 56.2516 117.927 56.2516 119H35.7766ZM59.2238 119V118.23L61.0088 117.845C61.8255 117.658 62.3388 117.448 62.5488 117.215C62.7822 116.982 62.8988 116.503 62.8988 115.78V98.665C62.8988 97.9183 62.7822 97.4283 62.5488 97.195C62.3388 96.9617 61.8255 96.7633 61.0088 96.6L59.2238 96.215V95.445H71.4738V96.215L69.6888 96.6C68.8955 96.7633 68.3822 96.9617 68.1488 97.195C67.9155 97.4283 67.7988 97.9183 67.7988 98.665V115.78C67.7988 116.41 67.9622 116.912 68.2888 117.285C68.6388 117.658 69.2805 117.845 70.2138 117.845H74.6238C75.5105 117.845 76.2922 117.74 76.9688 117.53C77.6455 117.297 78.2405 116.958 78.7538 116.515C79.2672 116.048 79.7222 115.477 80.1188 114.8L81.7638 112.105H82.5338C82.3005 113.132 82.0672 114.275 81.8338 115.535C81.6238 116.772 81.5188 117.927 81.5188 119H59.2238ZM96.6098 119.385C94.7898 119.385 93.1215 119.082 91.6048 118.475C90.0882 117.845 88.7698 116.993 87.6498 115.92C86.5298 114.823 85.6548 113.552 85.0248 112.105C84.4182 110.658 84.1148 109.118 84.1148 107.485C84.1148 105.712 84.4182 104.078 85.0248 102.585C85.6548 101.068 86.5298 99.75 87.6498 98.63C88.7698 97.51 90.0882 96.6467 91.6048 96.04C93.1215 95.41 94.7898 95.095 96.6098 95.095C98.4298 95.095 100.11 95.41 101.65 96.04C103.19 96.6467 104.52 97.4983 105.64 98.595C106.76 99.6917 107.623 100.963 108.23 102.41C108.86 103.833 109.175 105.373 109.175 107.03C109.175 108.803 108.86 110.437 108.23 111.93C107.623 113.423 106.76 114.73 105.64 115.85C104.52 116.97 103.19 117.845 101.65 118.475C100.11 119.082 98.4298 119.385 96.6098 119.385ZM96.6098 118.16C98.0798 118.16 99.3515 117.705 100.425 116.795C101.498 115.885 102.327 114.602 102.91 112.945C103.517 111.265 103.82 109.305 103.82 107.065C103.82 104.942 103.517 103.075 102.91 101.465C102.327 99.855 101.498 98.595 100.425 97.685C99.3515 96.775 98.0798 96.32 96.6098 96.32C95.1865 96.32 93.9382 96.775 92.8648 97.685C91.7915 98.595 90.9515 99.89 90.3448 101.57C89.7615 103.227 89.4698 105.198 89.4698 107.485C89.4698 109.048 89.6332 110.483 89.9598 111.79C90.3098 113.097 90.7998 114.228 91.4298 115.185C92.0598 116.142 92.8065 116.877 93.6698 117.39C94.5565 117.903 95.5365 118.16 96.6098 118.16ZM111.621 119V118.23L113.406 117.845C114.223 117.658 114.736 117.448 114.946 117.215C115.18 116.982 115.296 116.503 115.296 115.78V98.665C115.296 97.9183 115.18 97.4283 114.946 97.195C114.736 96.9617 114.223 96.7633 113.406 96.6L111.621 96.215V95.445H123.836C125.656 95.445 127.348 95.7483 128.911 96.355C130.475 96.9617 131.828 97.8017 132.971 98.875C134.138 99.925 135.036 101.15 135.666 102.55C136.32 103.95 136.646 105.455 136.646 107.065C136.646 108.768 136.331 110.343 135.701 111.79C135.095 113.237 134.231 114.508 133.111 115.605C131.991 116.678 130.661 117.518 129.121 118.125C127.581 118.708 125.901 119 124.081 119H111.621ZM123.346 117.845C124.956 117.845 126.345 117.402 127.511 116.515C128.701 115.628 129.623 114.38 130.276 112.77C130.93 111.137 131.256 109.223 131.256 107.03C131.256 104.953 130.93 103.133 130.276 101.57C129.623 99.9833 128.701 98.7467 127.511 97.86C126.345 96.9733 124.956 96.53 123.346 96.53H120.196V115.78C120.196 116.457 120.465 116.97 121.001 117.32C121.538 117.67 122.32 117.845 123.346 117.845ZM139.102 119V118.23L140.887 117.845C141.703 117.658 142.217 117.448 142.427 117.215C142.66 116.982 142.777 116.503 142.777 115.78V98.665C142.777 97.9183 142.66 97.4283 142.427 97.195C142.217 96.9617 141.703 96.7633 140.887 96.6L139.102 96.215V95.445H151.352V96.215L149.567 96.6C148.773 96.7633 148.26 96.9617 148.027 97.195C147.793 97.4283 147.677 97.9183 147.677 98.665V115.78C147.677 116.503 147.793 116.982 148.027 117.215C148.26 117.448 148.773 117.658 149.567 117.845L151.352 118.23V119H139.102ZM153.457 119V118.23L155.242 117.845C156.059 117.658 156.572 117.448 156.782 117.215C157.016 116.982 157.132 116.503 157.132 115.78V98.665C157.132 97.9183 157.016 97.4283 156.782 97.195C156.572 96.9617 156.059 96.7633 155.242 96.6L153.457 96.215V95.445H173.512C173.442 95.7717 173.396 96.0983 173.372 96.425C173.349 96.7283 173.337 97.0433 173.337 97.37C173.337 98.0933 173.396 98.805 173.512 99.505C173.629 100.182 173.746 100.893 173.862 101.64H173.092C172.719 100.707 172.229 99.8667 171.622 99.12C171.016 98.35 170.304 97.7433 169.487 97.3C168.671 96.8333 167.737 96.6 166.687 96.6H162.032V105.98H166.512C167.679 105.98 168.507 105.747 168.997 105.28C169.511 104.813 169.837 104.16 169.977 103.32L170.257 101.71H171.027V111.405H170.257L169.942 109.725C169.802 108.908 169.487 108.278 168.997 107.835C168.507 107.368 167.702 107.135 166.582 107.135H162.032V114.835C162.032 115.512 162.067 116.083 162.137 116.55C162.207 116.993 162.406 117.32 162.732 117.53C163.082 117.74 163.654 117.845 164.447 117.845H167.037C167.877 117.845 168.624 117.728 169.277 117.495C169.931 117.238 170.526 116.888 171.062 116.445C171.599 115.978 172.089 115.43 172.532 114.8L174.037 112.7H174.807C174.574 113.727 174.364 114.765 174.177 115.815C174.014 116.865 173.932 117.927 173.932 119H153.457Z" fill="black"/>
</g>
<defs>
<filter id="filter0_b_12_579" x="-2.95" y="71.293" width="422.791" height="57.8047" filterUnits="userSpaceOnUse" color-interpolation-filters="sRGB">
<feFlood flood-opacity="0" result="BackgroundImageFix"/>
<feGaussianBlur in="BackgroundImageFix" stdDeviation="2"/>
<feComposite in2="SourceAlpha" operator="in" result="effect1_backgroundBlur_12_579"/>
<feBlend mode="normal" in="SourceGraphic" in2="effect1_backgroundBlur_12_579" result="shape"/>
</filter>
</defs>
</svg>
